<svg width="1807" height="998" viewBox="0 0 1807 998" fill="none" xmlns="http://www.w3.org/2000/svg">
<line x1="4" y1="4" x2="1760" y2="4" stroke="#3B4189" stroke-opacity="0.15" stroke-width="8" stroke-linecap="round" stroke-dasharray="0.5 78"/>
<line x1="4" y1="184" x2="1760" y2="184" stroke="#3B4189" stroke-opacity="0.15" stroke-width="8" stroke-linecap="round" stroke-dasharray="0.5 78"/>
<line x1="4" y1="364" x2="1760" y2="364" stroke="#3B4189" stroke-opacity="0.15" stroke-width="8" stroke-linecap="round" stroke-dasharray="0.5 78"/>
<line x1="4" y1="544" x2="1760" y2="544" stroke="#3B4189" stroke-opacity="0.15" stroke-width="8" stroke-linecap="round" stroke-dasharray="0.5 78"/>
<line x1="4" y1="724" x2="1760" y2="724" stroke="#3B4189" stroke-opacity="0.15" stroke-width="8" stroke-linecap="round" stroke-dasharray="0.5 78"/>
<line x1="4" y1="904" x2="1760" y2="904" stroke="#3B4189" stroke-opacity="0.15" stroke-width="8" stroke-linecap="round" stroke-dasharray="0.5 78"/>
<line x1="4" y1="94" x2="1760" y2="94" stroke="#3B4189" stroke-opacity="0.15" stroke-width="8" stroke-linecap="round" stroke-dasharray="0.5 78"/>
<line x1="4" y1="274" x2="1760" y2="274" stroke="#3B4189" stroke-opacity="0.15" stroke-width="8" stroke-linecap="round" stroke-dasharray="0.5 78"/>
<line x1="4" y1="454" x2="1760" y2="454" stroke="#3B4189" stroke-opacity="0.15" stroke-width="8" stroke-linecap="round" stroke-dasharray="0.5 78"/>
<line x1="4" y1="634" x2="1760" y2="634" stroke="#3B4189" stroke-opacity="0.15" stroke-width="8" stroke-linecap="round" stroke-dasharray="0.5 78"/>
<line x1="4" y1="814" x2="1760" y2="814" stroke="#3B4189" stroke-opacity="0.15" stroke-width="8" stroke-linecap="round" stroke-dasharray="0.5 78"/>
<line x1="4" y1="994" x2="1760" y2="994" stroke="#3B4189" stroke-opacity="0.15" stroke-width="8" stroke-linecap="round" stroke-dasharray="0.5 78"/>
<line x1="47" y1="49" x2="1803" y2="49" stroke="#3B4189" stroke-opacity="0.15" stroke-width="8" stroke-linecap="round" stroke-dasharray="0.5 78"/>
<line x1="47" y1="229" x2="1803" y2="229" stroke="#3B4189" stroke-opacity="0.15" stroke-width="8" stroke-linecap="round" stroke-dasharray="0.5 78"/>
<line x1="47" y1="409" x2="1803" y2="409" stroke="#3B4189" stroke-opacity="0.15" stroke-width="8" stroke-linecap="round" stroke-dasharray="0.5 78"/>
<line x1="47" y1="589" x2="1803" y2="589" stroke="#3B4189" stroke-opacity="0.15" stroke-width="8" stroke-linecap="round" stroke-dasharray="0.5 78"/>
<line x1="47" y1="769" x2="1803" y2="769" stroke="#3B4189" stroke-opacity="0.15" stroke-width="8" stroke-linecap="round" stroke-dasharray="0.5 78"/>
<line x1="47" y1="949" x2="1803" y2="949" stroke="#3B4189" stroke-opacity="0.15" stroke-width="8" stroke-linecap="round" stroke-dasharray="0.5 78"/>
<line x1="47" y1="139" x2="1803" y2="139" stroke="#3B4189" stroke-opacity="0.15" stroke-width="8" stroke-linecap="round" stroke-dasharray="0.5 78"/>
<line x1="47" y1="319" x2="1803" y2="319" stroke="#3B4189" stroke-opacity="0.15" stroke-width="8" stroke-linecap="round" stroke-dasharray="0.5 78"/>
<line x1="47" y1="499" x2="1803" y2="499" stroke="#3B4189" stroke-opacity="0.15" stroke-width="8" stroke-linecap="round" stroke-dasharray="0.5 78"/>
<line x1="47" y1="679" x2="1803" y2="679" stroke="#3B4189" stroke-opacity="0.15" stroke-width="8" stroke-linecap="round" stroke-dasharray="0.5 78"/>
<line x1="47" y1="859" x2="1803" y2="859" stroke="#3B4189" stroke-opacity="0.15" stroke-width="8" stroke-linecap="round" stroke-dasharray="0.5 78"/>
</svg>
