<svg width="1920" height="1330" viewBox="0 0 1920 1330" fill="none" xmlns="http://www.w3.org/2000/svg">
<g clip-path="url(#clip0_295_137)">
<path d="M-27.5 2.5H1965" stroke="#9A91EA" stroke-opacity="0.3" stroke-width="3"/>
<path d="M-27.5 73H1965" stroke="#9A91EA" stroke-opacity="0.3" stroke-width="3"/>
<path d="M1870.25 -359.25L1870.25 1633.25" stroke="#9A91EA" stroke-opacity="0.3" stroke-width="3"/>
<path d="M-27.5 143.5H1965" stroke="#9A91EA" stroke-opacity="0.3" stroke-width="3"/>
<path d="M1799.75 -359.25L1799.75 1633.25" stroke="#9A91EA" stroke-opacity="0.3" stroke-width="3"/>
<path d="M-27.5 214H1965" stroke="#9A91EA" stroke-opacity="0.3" stroke-width="3"/>
<path d="M1729.25 -359.25L1729.25 1633.25" stroke="#9A91EA" stroke-opacity="0.3" stroke-width="3"/>
<path d="M-27.5 284.5H1965" stroke="#9A91EA" stroke-opacity="0.3" stroke-width="3"/>
<path d="M1658.75 -359.25L1658.75 1633.25" stroke="#9A91EA" stroke-opacity="0.3" stroke-width="3"/>
<path d="M-27.5 355H1965" stroke="#9A91EA" stroke-opacity="0.3" stroke-width="3"/>
<path d="M1588.25 -359.25L1588.25 1633.25" stroke="#9A91EA" stroke-opacity="0.3" stroke-width="3"/>
<path d="M-27.5 425.5H1965" stroke="#9A91EA" stroke-opacity="0.3" stroke-width="3"/>
<path d="M1517.75 -359.25L1517.75 1633.25" stroke="#9A91EA" stroke-opacity="0.3" stroke-width="3"/>
<path d="M-27.5 496H1965" stroke="#9A91EA" stroke-opacity="0.3" stroke-width="3"/>
<path d="M1447.25 -359.25L1447.25 1633.25" stroke="#9A91EA" stroke-opacity="0.3" stroke-width="3"/>
<path d="M-27.5 566.5H1965" stroke="#9A91EA" stroke-opacity="0.3" stroke-width="3"/>
<path d="M1376.75 -359.25L1376.75 1633.25" stroke="#9A91EA" stroke-opacity="0.3" stroke-width="3"/>
<path d="M-27.5 637H1965" stroke="#9A91EA" stroke-opacity="0.3" stroke-width="3"/>
<path d="M1306.25 -359.25L1306.25 1633.25" stroke="#9A91EA" stroke-opacity="0.3" stroke-width="3"/>
<path d="M601.5 -359.25L601.5 1633.25" stroke="#9A91EA" stroke-opacity="0.3" stroke-width="3"/>
<path d="M-27.5 707.5H1965" stroke="#9A91EA" stroke-opacity="0.3" stroke-width="3"/>
<path d="M1235.75 -359.25L1235.75 1633.25" stroke="#9A91EA" stroke-opacity="0.3" stroke-width="3"/>
<path d="M531 -359.25L531 1633.25" stroke="#9A91EA" stroke-opacity="0.3" stroke-width="3"/>
<path d="M-27.5 778H1965" stroke="#9A91EA" stroke-opacity="0.3" stroke-width="3"/>
<path d="M1165.25 -359.25L1165.25 1633.25" stroke="#9A91EA" stroke-opacity="0.3" stroke-width="3"/>
<path d="M460.5 -359.25L460.5 1633.25" stroke="#9A91EA" stroke-opacity="0.3" stroke-width="3"/>
<path d="M-27.5 848.5H1965" stroke="#9A91EA" stroke-opacity="0.3" stroke-width="3"/>
<path d="M1094.75 -359.25L1094.75 1633.25" stroke="#9A91EA" stroke-opacity="0.3" stroke-width="3"/>
<path d="M390 -359.25L390 1633.25" stroke="#9A91EA" stroke-opacity="0.3" stroke-width="3"/>
<path d="M-27.5 919H1965" stroke="#9A91EA" stroke-opacity="0.3" stroke-width="3"/>
<path d="M1024.25 -359.25L1024.25 1633.25" stroke="#9A91EA" stroke-opacity="0.3" stroke-width="3"/>
<path d="M319.5 -359.25L319.5 1633.25" stroke="#9A91EA" stroke-opacity="0.3" stroke-width="3"/>
<path d="M-27.5 989.5H1965" stroke="#9A91EA" stroke-opacity="0.3" stroke-width="3"/>
<path d="M953.75 -359.25L953.75 1633.25" stroke="#9A91EA" stroke-opacity="0.3" stroke-width="3"/>
<path d="M249 -359.25L249 1633.25" stroke="#9A91EA" stroke-opacity="0.3" stroke-width="3"/>
<path d="M-27.5 1060H1965" stroke="#9A91EA" stroke-opacity="0.3" stroke-width="3"/>
<path d="M883.25 -359.25L883.25 1633.25" stroke="#9A91EA" stroke-opacity="0.3" stroke-width="3"/>
<path d="M178.5 -359.25L178.5 1633.25" stroke="#9A91EA" stroke-opacity="0.3" stroke-width="3"/>
<path d="M-27.5 1130.5H1965" stroke="#9A91EA" stroke-opacity="0.3" stroke-width="3"/>
<path d="M812.75 -359.25L812.75 1633.25" stroke="#9A91EA" stroke-opacity="0.3" stroke-width="3"/>
<path d="M108 -359.25L108 1633.25" stroke="#9A91EA" stroke-opacity="0.3" stroke-width="3"/>
<path d="M-27.5 1201H1965" stroke="#9A91EA" stroke-opacity="0.3" stroke-width="3"/>
<path d="M742.25 -359.25L742.25 1633.25" stroke="#9A91EA" stroke-opacity="0.3" stroke-width="3"/>
<path d="M37.5001 -359.25L37.5 1633.25" stroke="#9A91EA" stroke-opacity="0.3" stroke-width="3"/>
<path d="M-27.5 1271.5H1965" stroke="#9A91EA" stroke-opacity="0.3" stroke-width="3"/>
<path d="M671.75 -359.25L671.75 1633.25" stroke="#9A91EA" stroke-opacity="0.3" stroke-width="3"/>
</g>
<defs>
<clipPath id="clip0_295_137">
<rect width="1921" height="1330" fill="white"/>
</clipPath>
</defs>
</svg>
