<svg width="36" height="36" viewBox="0 0 36 36" fill="none" xmlns="http://www.w3.org/2000/svg">
<path d="M30.7483 17.7606C30.7483 24.5098 25.2381 29.9927 18.4267 29.9927C11.6153 29.9927 6.10504 24.5098 6.10504 17.7606C6.10504 11.0114 11.6153 5.52856 18.4267 5.52856C25.2381 5.52856 30.7483 11.0114 30.7483 17.7606Z" stroke="#3B4189" stroke-width="2"/>
<path d="M1.55261 17.7606C1.55261 19.2871 1.75806 20.7659 2.14299 22.1713C4.09228 29.2881 10.6442 34.5212 18.4267 34.5212C20.3213 34.5212 22.143 34.211 23.8432 33.6391M18.4267 1C26.0475 1 32.4883 6.01795 34.583 12.9088" stroke="#3B4189" stroke-width="2" stroke-linecap="round" stroke-linejoin="round"/>
<path d="M25.4197 17.7606C25.4197 21.2633 24.56 24.3861 23.2226 26.6C21.8739 28.8329 20.148 29.9927 18.4267 29.9927C16.7054 29.9927 14.9795 28.8329 13.6308 26.6C12.2934 24.3861 11.4337 21.2633 11.4337 17.7606C11.4337 14.258 12.2934 11.1352 13.6308 8.92119C14.9795 6.68834 16.7054 5.52856 18.4267 5.52856C20.148 5.52856 21.8739 6.68834 23.2226 8.92119C24.56 11.1352 25.4197 14.258 25.4197 17.7606Z" stroke="#3B4189" stroke-width="2"/>
<line x1="6.17075" y1="17.29" x2="30.6826" y2="17.29" stroke="#3B4189" stroke-width="2"/>
<line x1="17.9596" y1="30.4634" x2="17.9596" y2="6.11641" stroke="#3B4189" stroke-width="2"/>
<line x1="7.23648" y1="23.6414" x2="29.6168" y2="23.6414" stroke="#3B4189" stroke-width="2"/>
<line x1="7.23648" y1="11.468" x2="29.6168" y2="11.468" stroke="#3B4189" stroke-width="2"/>
</svg>
