<svg width="154" height="154" viewBox="0 0 154 154" fill="none" xmlns="http://www.w3.org/2000/svg">
<path d="M76.0275 31.8582C102.196 32.9336 105.153 56.2042 103.361 67.7051C106.497 66.5102 113.039 65.375 114.115 70.3936C115.19 75.4122 108.29 78.7579 104.705 79.8034C104.854 83.9856 107.346 93.0972 116.355 95.0384C132.312 98.4763 119.449 107.364 112.322 106.241C109.634 106.674 111.189 111.802 109.186 112.514C105.011 113.996 98.0203 111.751 95.2952 112.962C91.2624 114.754 87.2296 121.475 76.0275 121.475" stroke="#3B4189" stroke-width="10"/>
<path d="M76.9237 31.8582C50.5259 32.9336 47.5426 56.2042 49.3507 67.7051C46.1865 66.5102 39.5871 65.375 38.5023 70.3936C37.4174 75.4122 44.3785 78.7579 47.9946 79.8034C47.8439 83.9856 45.3307 93.0972 36.2422 95.0384C20.1457 98.4763 33.1217 107.364 40.3103 106.241C43.0224 106.674 41.4537 111.802 43.4744 112.514C47.6855 113.996 54.738 111.751 57.487 112.962C61.5551 114.754 65.6233 121.475 76.9237 121.475" stroke="#3B4189" stroke-width="10"/>
<rect x="6" y="6" width="142" height="142" rx="9" stroke="#3B4189" stroke-width="12"/>
</svg>
