<svg width="234" height="253" viewBox="0 0 234 253" fill="none" xmlns="http://www.w3.org/2000/svg">
<path d="M147.747 94.718L158.5 35.5682L169.253 94.718C169.621 96.7416 171.087 98.3908 173.054 98.9931L222.049 114L173.054 129.007C171.087 129.609 169.621 131.258 169.253 133.282L158.5 192.432L147.747 133.282C147.379 131.258 145.913 129.609 143.946 129.007L94.951 114L143.946 98.9931C145.913 98.3908 147.379 96.7415 147.747 94.718Z" fill="white" stroke="#3B4189" stroke-width="7"/>
<path d="M49.8554 161.525L57.5 120.229L65.1446 161.525C65.5122 163.511 66.9387 165.136 68.8604 165.757L103.625 177L68.8604 188.243C66.9387 188.864 65.5122 190.489 65.1446 192.475L57.5 233.771L49.8554 192.475C49.4878 190.489 48.0613 188.864 46.1396 188.243L11.3746 177L46.1397 165.757C48.0613 165.136 49.4878 163.511 49.8554 161.525ZM108.039 175.573L108.034 175.574C108.036 175.574 108.037 175.573 108.039 175.573Z" fill="white" stroke="#3B4189" stroke-width="7"/>
<path d="M81.0865 43.2563L86.5 17.2036L91.9135 43.2563C92.3522 45.3676 93.8095 47.1239 95.8036 47.9447L117.804 57L95.8036 66.0553C93.8095 66.8761 92.3522 68.6324 91.9135 70.7437L86.5 96.7964L81.0865 70.7437C80.6478 68.6324 79.1905 66.8761 77.1964 66.0553L75.8642 69.2919L77.1964 66.0553L55.1957 57L77.1964 47.9447C79.1905 47.1239 80.6478 45.3676 81.0865 43.2563ZM118.928 56.5376L118.927 56.5381L118.928 56.5376Z" fill="white" stroke="#3B4189" stroke-width="7"/>
</svg>
