<svg width="154" height="154" viewBox="0 0 154 154" fill="none" xmlns="http://www.w3.org/2000/svg">
<rect x="6" y="6" width="142" height="142" rx="9" stroke="#3B4189" stroke-width="12"/>
<path d="M113.625 58.3263C116.25 86.9386 85.5 132.058 30 106.38C42.9563 106.598 49.1436 104.802 57.75 98.3102C47.0069 96.8753 43.6213 93.4274 39.75 85.1045C43.2724 85.7612 45.1985 85.8808 48.375 84.7377C37.5477 80.3165 33.8247 76.4321 33 66.0297L42 68.5974C30.9763 59.4556 30.8127 52.8826 36 43.6534C47.9154 57.3536 57.6952 60.7087 75.75 63.0951C71.25 45.8543 91.125 31.5482 108.375 45.8543C113.635 44.9459 116.196 43.7907 120.375 41.0856C118.968 45.7094 117.03 47.914 112.125 51.3567C116.335 51.3339 118.727 50.7529 123 48.7889C121.5 52.0903 116.625 56.6145 113.625 58.3263Z" stroke="#3B4189" stroke-width="10" stroke-linejoin="round"/>
</svg>
